<?xml version="1.0" encoding="utf-8"?>
<!-- Generator: Adobe Illustrator 19.0.0, SVG Export Plug-In . SVG Version: 6.00 Build 0)  -->
<svg version="1.1" id="Layer_1" xmlns="http://www.w3.org/2000/svg" xmlns:xlink="http://www.w3.org/1999/xlink" x="0px" y="0px"
	 viewBox="0 0 4998.1 1194.1" style="enable-background:new 0 0 4998.1 1194.1;" xml:space="preserve">
<style type="text/css">
	.st0{fill:#2A3E48;}
	.st1{display:none;fill:#231F20;}
	.st2{font-family:'NNMedien-Medium';}
	.st3{font-size:516px;}
	.st4{fill:#F27923;}
	.st5{fill:#F5A730;}
	.st6{fill:#20AD92;}
	.st7{fill:#D0D1D1;}
</style>
<g id="XMLID_6_">
	<path id="XMLID_436_" class="st0" d="M1199.4,725.8c23.2,0,36.6-1.5,66-7.7l7.2,49.5c-22.7,6.2-48,9.3-73.2,9.3
		c-112.9,0-145.4-70.6-145.4-153.1c1-80.4,49.5-148.5,144.9-148.5c25.3,0,46.9,3.1,73.2,9.8l-9.8,49c-27.8-6.2-44.3-7.2-61.9-7.2
		c-59.8,1-89.2,45.4-90.2,96.9C1110.2,674.8,1129.3,725.8,1199.4,725.8z"/>
	<path id="XMLID_433_" class="st0" d="M1430.3,475.2c92.8,0.5,134.1,69.6,134.1,150.6c0,78.9-35.6,149.5-134.6,150
		c-96.9-1-134.1-71.2-134.1-150C1295.7,544.9,1337.5,476.3,1430.3,475.2z M1430.3,726.3c59.3-0.5,78.4-48.5,78.4-100.5
		c-0.5-47.4-20.6-101.1-78.9-101.1c-56.7,0.5-78.9,53.1-78.9,101.1C1350.9,679.9,1374.6,726.3,1430.3,726.3z"/>
	<path id="XMLID_431_" class="st0" d="M1948.5,770.7V585.1c0-46.9-17.5-59.8-46.9-59.8c-20.1,0-42.8,11.3-63.4,28.4
		c1,6.2,1.5,18.6,1.5,22.2v194.9h-57.8V583c0-46.9-13.9-58.3-43.3-58.3c-18.6,0-44.3,12.4-66.5,28.9v217.1h-57.2V480.4h57.2v24.7
		c17.5-13.9,45.4-29.9,75.8-30.4c40.2-0.5,63.4,13.4,76.3,35.1c23.7-22.2,58.8-34.5,85.6-35.1c94.4-1.5,95.9,74.2,95.9,106.2v189.7
		H1948.5z"/>
	<path id="XMLID_429_" class="st0" d="M2402.1,770.7V585.1c0-46.9-17.5-59.8-46.9-59.8c-20.1,0-42.8,11.3-63.4,28.4
		c1,6.2,1.5,18.6,1.5,22.2v194.9h-57.7V583c0-46.9-13.9-58.3-43.3-58.3c-18.6,0-44.3,12.4-66.5,28.9v217.1h-57.2V480.4h57.2v24.7
		c17.5-13.9,45.4-29.9,75.8-30.4c40.2-0.5,63.4,13.4,76.3,35.1c23.7-22.2,58.8-34.5,85.6-35.1c94.4-1.5,95.9,74.2,95.9,106.2v189.7
		H2402.1z"/>
	<path id="XMLID_426_" class="st0" d="M2726.4,717.6l8.8,46.9c-25.8,8.8-61.4,12.9-89.2,12.9c-114.5,0-142.3-76.8-142.3-153.7
		c0-76.8,34-148,129.9-148c59.3,0,108.8,36.6,109.3,129.9l-0.5,30.4h-182.5c1,56.7,31.5,91.3,88.7,91.3
		C2671.2,727.4,2694.9,724.8,2726.4,717.6z M2562.4,591.8h127.4c-2.1-58.8-31.4-70.6-58.8-70.6
		C2587.7,520.6,2567.6,550,2562.4,591.8z"/>
	<path id="XMLID_424_" class="st0" d="M2953.2,533.5c-15-3.6-27.9-4.1-37.1-4.1c-35.6-0.5-54.1,17-67.5,30.9v210.4h-57.2V480.4h57.2
		v25.8c15-15.5,37.6-28.9,67-29.4c11.9-0.5,31.4,1.5,47.9,7.7L2953.2,533.5z"/>
	<path id="XMLID_422_" class="st0" d="M3120.8,725.8c23.2,0,36.6-1.5,66-7.7l7.2,49.5c-22.7,6.2-48,9.3-73.2,9.3
		c-112.9,0-145.4-70.6-145.4-153.1c1-80.4,49.5-148.5,144.9-148.5c25.3,0,46.9,3.1,73.2,9.8l-9.8,49c-27.8-6.2-44.3-7.2-61.9-7.2
		c-59.8,1-89.2,45.4-90.2,96.9C3031.6,674.8,3050.6,725.8,3120.8,725.8z"/>
	<path id="XMLID_419_" class="st0" d="M3439.9,717.6l8.8,46.9c-25.8,8.8-61.4,12.9-89.2,12.9c-114.5,0-142.3-76.8-142.3-153.7
		c0-76.8,34-148,129.9-148c59.3,0,108.8,36.6,109.3,129.9l-0.5,30.4h-182.5c1,56.7,31.5,91.3,88.7,91.3
		C3384.7,727.4,3408.4,724.8,3439.9,717.6z M3275.9,591.8h127.4c-2.1-58.8-31.4-70.6-58.8-70.6
		C3301.2,520.6,3281.1,550,3275.9,591.8z"/>
	<path id="XMLID_417_" class="st0" d="M3650.2,527.8h-78.9v140.8c0,29.4,3.6,50,33.5,54.1c16.5,1.5,33.5,0,50-2.1l3.6,49.5
		c-17,3.1-41.2,3.6-51,3.6c-67.5-2.6-92.8-37.1-92.8-91.3V527.8h-41.8v-39.7l41.8-4.6v-67.5h56.7v64.5h78.9V527.8z"/>
	<path id="XMLID_414_" class="st0" d="M3816.7,475.2c92.8,0.5,134.1,69.6,134.1,150.6c0,78.9-35.6,149.5-134.6,150
		c-96.9-1-134.1-71.2-134.1-150C3682.2,544.9,3723.9,476.3,3816.7,475.2z M3816.7,726.3c59.3-0.5,78.4-48.5,78.4-100.5
		c-0.5-47.4-20.6-101.1-78.9-101.1c-56.7,0.5-78.9,53.1-78.9,101.1C3737.3,679.9,3761.1,726.3,3816.7,726.3z"/>
	<path id="XMLID_411_" class="st0" d="M4125,475.2c92.8,0.5,134.1,69.6,134.1,150.6c0,78.9-35.6,149.5-134.6,150
		c-96.9-1-134.1-71.2-134.1-150C3990.5,544.9,4032.2,476.3,4125,475.2z M4125,726.3c59.3-0.5,78.4-48.5,78.4-100.5
		c-0.5-47.4-20.6-101.1-78.9-101.1c-56.7,0.5-78.9,53.1-78.9,101.1C4045.6,679.9,4069.3,726.3,4125,726.3z"/>
	<path id="XMLID_409_" class="st0" d="M4304.4,770.7V376.8h55.2v393.9H4304.4z"/>
	<path id="XMLID_407_" class="st0" d="M4417.8,714.5c32.5,8.2,62.9,12.4,82,12.4c22.7,0,45.9-4.6,47.4-32
		c1.5-28.9-28.4-37.6-62.4-52.1c-38.7-16-80.4-37.6-79.4-91.3c1-26.8,17-79.4,102.6-76.8c25.8,0.5,56.7,4.6,82.5,11.3l-9.8,47.4
		c-30.4-7.2-53.1-10.3-75.3-10.8c-24.8,0-43.8,7.7-44.9,30.9c-0.5,19.6,15,29.9,53.1,45.4c38.7,16,93.3,36.6,90.7,97.5
		c-1.5,38.7-26.8,81-104.7,79.9c-24.8-0.5-64.5-3.6-93.8-13.9L4417.8,714.5z"/>
</g>
<text id="XMLID_19_" transform="matrix(1 0 0 1 482.6271 298.0295)" class="st1 st2 st3">x</text>
<g id="XMLID_1_">
	<path id="XMLID_75_" class="st4" d="M398.8,764.3c-4.5,2.1-7.3,6.6-7.3,11.5c0,4.9,2.8,9.4,7.3,11.5l245.7,115.1
		c3.3,1.6,6.8,2.3,10.4,2.4V647.9c-3.7,0-7.3,0.8-10.7,2.4L398.8,764.3z"/>
	<path id="XMLID_74_" class="st5" d="M654.9,647.9v256.8c3.8,0.1,7.6-0.7,11.1-2.4l245-114.7c4.5-2.1,7.3-6.6,7.3-11.5
		c0-4.9-2.8-9.4-7.3-11.5L665.6,650.3C662.2,648.7,658.6,647.9,654.9,647.9z"/>
	<path id="XMLID_73_" class="st6" d="M391.5,428.3c0,5,2.8,9.4,7.3,11.5l245.7,115.1c3.3,1.6,6.8,2.3,10.4,2.4
		c3.1,0,6.2-0.5,9.2-1.6c2.3-1.1,1.9-0.9,6.9-3.2c25.4-11.8,8.6-3.9,240.1-112.3c4.5-2.1,7.3-6.6,7.3-11.5c0-4.9-2.8-9.4-7.3-11.5
		L665.6,302.7c-6.8-3.2-14.6-3.2-21.4,0L398.8,416.8C394.4,418.8,391.5,423.3,391.5,428.3z"/>
	<path id="XMLID_72_" class="st7" d="M654.9,571.6v76.3c-3.7,0-7.3,0.8-10.7,2.4L398.8,764.3c-4.5,2.1-7.3,6.6-7.3,11.5l0-339
		c0,0,0-9.8,0-8.6c0,4.9,2.8,9.4,7.3,11.5l245.8,115c3.3,1.6,6.8,2.3,10.4,2.4c3.1,0,6.2-0.5,9.2-1.6l-0.4,0.2
		C656.1,559.3,654.9,562.9,654.9,571.6z"/>
</g>
</svg>
